<svg width="27" height="27" viewBox="0 0 27 27" fill="none" xmlns="http://www.w3.org/2000/svg">
<path d="M14.7565 9.44983C14.7565 8.92569 15.1059 8.7982 15.3434 8.7982C15.5879 8.7982 16.8525 8.79466 16.8525 8.79466V6.45728L14.781 6.4502C12.4823 6.4502 11.9583 8.19615 11.9583 9.31172V10.87H10.6309V13.2746H11.9583C11.9583 16.3699 11.9583 20.0955 11.9583 20.0955H14.753C14.753 20.0955 14.753 16.3274 14.753 13.2746H16.6395L16.8805 10.87H14.753V9.44983H14.7565Z" fill="black"/>
<path d="M13.7576 25.1671C20.3404 25.1671 25.6768 19.7571 25.6768 13.0836C25.6768 6.40999 20.3404 1 13.7576 1C7.17478 1 1.83838 6.40999 1.83838 13.0836C1.83838 19.7571 7.17478 25.1671 13.7576 25.1671Z" stroke="black" stroke-width="2" stroke-miterlimit="10"/>
</svg>
