<svg width="27" height="27" viewBox="0 0 27 27" fill="none" xmlns="http://www.w3.org/2000/svg">
<path d="M20.2124 8.75638C20.0168 8.25349 19.7618 7.85685 19.388 7.48145C19.0212 7.10605 18.6335 6.84752 18.1304 6.6492C17.6239 6.45088 17.0964 6.34817 16.4222 6.31984C15.6991 6.28443 15.458 6.27734 13.5891 6.27734C11.7237 6.27734 11.4792 6.28443 10.7596 6.31984C10.0854 6.34817 9.55787 6.45088 9.05134 6.6492C8.5518 6.84752 8.16404 7.10251 7.79376 7.48145C7.41997 7.86039 7.16845 8.25349 6.97283 8.75993C6.7772 9.27344 6.6759 9.80821 6.64446 10.4882C6.60952 11.2319 6.60254 11.4762 6.60254 13.3603C6.60254 15.2444 6.60952 15.4888 6.64446 16.2325C6.6759 16.916 6.7772 17.4472 6.97283 17.9607C7.16845 18.4671 7.41997 18.8603 7.79376 19.2356C8.16055 19.611 8.5483 19.8696 9.05134 20.0714C9.56136 20.2662 10.0854 20.3689 10.7596 20.4008C11.4827 20.4362 11.7028 20.4433 13.5926 20.4433C15.486 20.4433 15.7026 20.4327 16.4257 20.4008C17.0964 20.3689 17.6239 20.2698 18.1339 20.0714C18.6369 19.8696 19.0247 19.611 19.388 19.2392C19.7583 18.8638 20.0133 18.4707 20.2124 17.9607C20.4046 17.4472 20.5059 16.916 20.5408 16.2254C20.5722 15.4888 20.5792 15.2408 20.5792 13.3603C20.5792 11.4762 20.5687 11.2319 20.5408 10.4882C20.5059 9.80467 20.4046 9.2699 20.2124 8.75638ZM19.0422 16.1652C19.0142 16.8168 18.9059 17.1745 18.8151 17.4118C18.6998 17.7163 18.5601 17.9359 18.333 18.1661C18.113 18.3892 17.8964 18.5344 17.5925 18.6548C17.3549 18.7469 17.0021 18.8567 16.3628 18.885C15.6502 18.9205 15.4581 18.924 13.5961 18.924C11.7342 18.924 11.5421 18.9169 10.8329 18.885C10.1832 18.8567 9.83384 18.7469 9.59979 18.6548C9.29238 18.5309 9.08278 18.3963 8.85572 18.1661C8.62865 17.9324 8.48892 17.7163 8.37364 17.4118C8.28281 17.1745 8.17452 16.8204 8.14658 16.1652C8.11164 15.4356 8.10815 15.2408 8.10815 13.3603C8.10815 11.4869 8.11514 11.2708 8.14658 10.559C8.17452 9.90029 8.28281 9.54614 8.37364 9.30886C8.48542 9.00783 8.62516 8.7918 8.85572 8.55806C9.08278 8.32787 9.29238 8.18975 9.59979 8.06934C9.82685 7.9808 10.1762 7.87101 10.8294 7.83914C11.5456 7.81081 11.7621 7.80018 13.5926 7.80018C15.4266 7.80018 15.6432 7.81081 16.3593 7.83914C17.0091 7.87101 17.3584 7.9808 17.589 8.06934C17.8964 8.19329 18.113 8.33495 18.333 8.55806C18.5636 8.7918 18.6998 9.00429 18.8151 9.30886C18.9059 9.54614 19.0142 9.90383 19.0422 10.559C19.0771 11.2921 19.0806 11.494 19.0806 13.3603C19.0806 15.2267 19.0771 15.4285 19.0422 16.1652Z" fill="black"/>
<path d="M13.5929 9.66016C11.5807 9.66016 9.94238 11.3211 9.94238 13.361C9.94238 15.4009 11.5807 17.0619 13.5929 17.0619C15.605 17.0619 17.2434 15.4009 17.2434 13.361C17.2434 11.3211 15.605 9.66016 13.5929 9.66016ZM13.5929 15.5461C12.4052 15.5461 11.441 14.5651 11.441 13.361C11.441 12.1569 12.4087 11.1759 13.5929 11.1759C14.7806 11.1759 15.7483 12.1569 15.7483 13.361C15.7483 14.5651 14.7806 15.5461 13.5929 15.5461Z" fill="black"/>
<path d="M17.2505 8.68555C16.7265 8.68555 16.3003 9.11761 16.3003 9.65237C16.3003 10.1871 16.7265 10.6192 17.2505 10.6192C17.7779 10.6192 18.2041 10.1871 18.2041 9.65237C18.2041 9.11761 17.7779 8.68555 17.2505 8.68555Z" fill="black"/>
<path d="M13.596 25.1671C20.1787 25.1671 25.5151 19.7571 25.5151 13.0836C25.5151 6.40999 20.1787 1 13.596 1C7.01316 1 1.67676 6.40999 1.67676 13.0836C1.67676 19.7571 7.01316 25.1671 13.596 25.1671Z" stroke="black" stroke-width="2" stroke-miterlimit="10"/>
</svg>
