<svg width="88" height="37" viewBox="0 0 88 37" fill="none" xmlns="http://www.w3.org/2000/svg">
<path d="M8.77789 11.7696C8.47768 11.3619 8.08442 11.0651 7.6011 10.8762C7.11777 10.6873 6.64646 10.5944 6.18415 10.5944C5.59275 10.5944 5.05539 10.7023 4.57207 10.9152C4.08874 11.131 3.67146 11.4248 3.32323 11.7995C2.97499 12.1743 2.70481 12.615 2.51869 13.1186C2.32956 13.6223 2.2365 14.1709 2.2365 14.7585C2.2365 15.3791 2.32656 15.9487 2.50968 16.4643C2.69281 16.98 2.95398 17.4207 3.29021 17.7924C3.62643 18.1641 4.03471 18.4489 4.50602 18.6528C4.97734 18.8567 5.50869 18.9586 6.10009 18.9586C6.7125 18.9586 7.25286 18.8387 7.72718 18.5958C8.1985 18.353 8.57975 18.0352 8.87095 17.6395L10.498 18.7817C9.9937 19.4143 9.37529 19.9059 8.6458 20.2537C7.91631 20.6015 7.06073 20.7753 6.08508 20.7753C5.19348 20.7753 4.37393 20.6284 3.62943 20.3316C2.88193 20.0379 2.2425 19.6241 1.70514 19.0935C1.17079 18.5629 0.750503 17.9303 0.450302 17.1958C0.150101 16.4613 0 15.6489 0 14.7615C0 13.8501 0.159107 13.0257 0.474318 12.2912C0.789529 11.5567 1.22482 10.9331 1.78019 10.4175C2.33256 9.90186 2.984 9.50613 3.73751 9.22733C4.48801 8.94852 5.30456 8.80762 6.18415 8.80762C6.55039 8.80762 6.93165 8.84359 7.32791 8.91254C7.72418 8.9815 8.10543 9.08942 8.47168 9.23332C8.83793 9.37722 9.18016 9.5571 9.50137 9.77295C9.82259 9.9858 10.0988 10.2436 10.3239 10.5434L8.77789 11.7696Z" fill="black"/>
<path d="M11.0173 14.7615C11.0173 13.8501 11.1704 13.0257 11.4766 12.2912C11.7828 11.5567 12.2061 10.9331 12.7495 10.4175C13.2929 9.90186 13.9353 9.50613 14.6828 9.22733C15.4303 8.94852 16.2408 8.80762 17.1234 8.80762C18.015 8.80762 18.8346 8.94852 19.5881 9.22733C20.3386 9.50613 20.99 9.90186 21.5364 10.4175C22.0828 10.9331 22.512 11.5567 22.8182 12.2912C23.1245 13.0257 23.2776 13.8501 23.2776 14.7615C23.2776 15.6519 23.1245 16.4643 22.8182 17.1988C22.512 17.9333 22.0858 18.5659 21.5364 19.0965C20.99 19.6271 20.3386 20.0409 19.5881 20.3346C18.8376 20.6284 18.015 20.7783 17.1234 20.7783C16.2438 20.7783 15.4303 20.6314 14.6828 20.3346C13.9353 20.0409 13.2929 19.6271 12.7495 19.0965C12.2061 18.5659 11.7828 17.9333 11.4766 17.1988C11.1704 16.4613 11.0173 15.6489 11.0173 14.7615ZM13.2238 14.7615C13.2238 15.3731 13.3169 15.9337 13.506 16.4433C13.6951 16.953 13.9623 17.3937 14.3105 17.7714C14.6588 18.1462 15.0731 18.44 15.5504 18.6468C16.0277 18.8567 16.556 18.9616 17.1354 18.9616C17.7148 18.9616 18.2462 18.8567 18.7295 18.6468C19.2128 18.437 19.6301 18.1462 19.9783 17.7714C20.3266 17.3967 20.5968 16.953 20.7829 16.4433C20.972 15.9337 21.0651 15.3731 21.0651 14.7615C21.0651 14.1709 20.972 13.6253 20.7829 13.1216C20.5938 12.618 20.3296 12.1773 19.9843 11.8025C19.6391 11.4278 19.2278 11.131 18.7445 10.9182C18.2612 10.7053 17.7238 10.5974 17.1324 10.5974C16.541 10.5974 16.0067 10.7053 15.5294 10.9182C15.052 11.134 14.6408 11.4278 14.2985 11.8025C13.9533 12.1773 13.6891 12.618 13.5 13.1216C13.3169 13.6223 13.2238 14.1709 13.2238 14.7615Z" fill="black"/>
<path d="M25.2378 9.09961H28.4109L31.3739 17.191H31.4219L34.3519 9.09961H37.54V20.4857H35.5257V11.3361H35.4927L32.0313 20.4887H30.6144L27.2041 11.3361H27.1711V20.4887H25.2378V9.09961Z" fill="black"/>
<path d="M40.0557 9.09961H47.4166V10.8684H42.085V13.9892H47.1104V15.6951H42.085V20.4887H40.0557V9.09961Z" fill="black"/>
<path d="M48.7377 14.7615C48.7377 13.8501 48.8908 13.0257 49.197 12.2912C49.5032 11.5567 49.9265 10.9331 50.4698 10.4175C51.0132 9.90186 51.6556 9.50613 52.4031 9.22733C53.1506 8.94852 53.9612 8.80762 54.8438 8.80762C55.7354 8.80762 56.5549 8.94852 57.3084 9.22733C58.0589 9.50613 58.7103 9.90186 59.2567 10.4175C59.8031 10.9331 60.2324 11.5567 60.5386 12.2912C60.8448 13.0257 60.9979 13.8501 60.9979 14.7615C60.9979 15.6519 60.8448 16.4643 60.5386 17.1988C60.2324 17.9333 59.8061 18.5659 59.2567 19.0965C58.7103 19.6271 58.0589 20.0409 57.3084 20.3346C56.5579 20.6284 55.7354 20.7783 54.8438 20.7783C53.9642 20.7783 53.1506 20.6314 52.4031 20.3346C51.6556 20.0409 51.0132 19.6271 50.4698 19.0965C49.9265 18.5659 49.5032 17.9333 49.197 17.1988C48.8878 16.4613 48.7377 15.6489 48.7377 14.7615ZM50.9441 14.7615C50.9441 15.3731 51.0372 15.9337 51.2263 16.4433C51.4155 16.953 51.6826 17.3937 52.0309 17.7714C52.3791 18.1462 52.7934 18.44 53.2707 18.6468C53.748 18.8567 54.2764 18.9616 54.8558 18.9616C55.4352 18.9616 55.9665 18.8567 56.4498 18.6468C56.9332 18.437 57.3504 18.1462 57.6987 17.7714C58.0469 17.3967 58.3171 16.953 58.5032 16.4433C58.6923 15.9337 58.7854 15.3731 58.7854 14.7615C58.7854 14.1709 58.6923 13.6253 58.5032 13.1216C58.3141 12.618 58.0499 12.1773 57.7047 11.8025C57.3594 11.4278 56.9482 11.131 56.4648 10.9182C55.9815 10.7053 55.4442 10.5974 54.8528 10.5974C54.2614 10.5974 53.727 10.7053 53.2497 10.9182C52.7724 11.134 52.3611 11.4278 52.0189 11.8025C51.6736 12.1773 51.4095 12.618 51.2203 13.1216C51.0372 13.6223 50.9441 14.1709 50.9441 14.7615Z" fill="black"/>
<path d="M62.958 9.09961H66.9207C67.458 9.09961 67.9774 9.15657 68.4817 9.26749C68.9861 9.38142 69.4334 9.56429 69.8266 9.82211C70.2199 10.0799 70.5321 10.4187 70.7692 10.8354C71.0064 11.2521 71.1235 11.7618 71.1235 12.3644C71.1235 13.1888 70.8893 13.8633 70.424 14.382C69.9557 14.9036 69.3193 15.2544 68.5147 15.4342L71.5588 20.4857H69.1121L66.4704 15.6591H64.9874V20.4857H62.958V9.09961ZM66.6445 14.0042C66.9357 14.0042 67.2239 13.9832 67.5151 13.9413C67.8063 13.8993 68.0644 13.8184 68.2956 13.7014C68.5267 13.5845 68.7159 13.4136 68.866 13.1948C69.0161 12.9759 69.0911 12.6941 69.0911 12.3494C69.0911 12.0376 69.0221 11.7828 68.881 11.5849C68.7399 11.387 68.5628 11.2281 68.3496 11.1112C68.1335 10.9943 67.8903 10.9134 67.6171 10.8684C67.344 10.8264 67.0768 10.8054 66.8186 10.8054H64.9814V14.0072H66.6445V14.0042Z" fill="black"/>
<path d="M75.1975 10.8684H71.7031V9.09961H80.7212V10.8684H77.2268V20.4857H75.1975V10.8684Z" fill="black"/>
<path d="M37.2548 27.1819C37.0387 26.9031 36.7355 26.6692 36.3452 26.4834C35.9519 26.2975 35.5587 26.2016 35.1624 26.2016C34.9252 26.2016 34.6911 26.2316 34.4539 26.2915C34.2168 26.3515 34.0036 26.4414 33.8085 26.5643C33.6164 26.6872 33.4573 26.8491 33.3342 27.047C33.2111 27.2448 33.148 27.4847 33.148 27.7635C33.148 28.0213 33.2021 28.2402 33.3102 28.423C33.4182 28.6059 33.5653 28.7618 33.7545 28.8907C33.9436 29.0196 34.1717 29.1305 34.4389 29.2295C34.7061 29.3254 35.0033 29.4213 35.3245 29.5173C35.6908 29.6342 36.069 29.7691 36.4593 29.919C36.8525 30.0689 37.2098 30.2668 37.537 30.5126C37.8642 30.7584 38.1344 31.0702 38.3415 31.4449C38.5517 31.8197 38.6567 32.2874 38.6567 32.845C38.6567 33.4566 38.5427 33.9902 38.3175 34.4459C38.0924 34.9016 37.7922 35.2793 37.4169 35.5791C37.0417 35.8789 36.6004 36.1037 36.096 36.2536C35.5917 36.4035 35.0603 36.4785 34.502 36.4785C33.7605 36.4785 33.037 36.3406 32.3285 36.0677C31.62 35.7949 31.0406 35.3902 30.5903 34.8536L32.0403 33.5015C32.3195 33.8883 32.6917 34.194 33.1601 34.4189C33.6284 34.6437 34.0847 34.7577 34.538 34.7577C34.7751 34.7577 35.0153 34.7277 35.2615 34.6707C35.5076 34.6108 35.7298 34.5118 35.9309 34.3739C36.129 34.236 36.2912 34.0591 36.4142 33.8523C36.5373 33.6424 36.6004 33.3846 36.6004 33.0728C36.6004 32.773 36.5313 32.5242 36.3902 32.3233C36.2491 32.1255 36.063 31.9546 35.8258 31.8077C35.5887 31.6638 35.3095 31.5379 34.9883 31.43C34.6671 31.322 34.3278 31.2111 33.9736 31.0912C33.6284 30.9833 33.2861 30.8544 32.9439 30.7045C32.5987 30.5546 32.2925 30.3567 32.0193 30.1079C31.7461 29.862 31.524 29.5592 31.3498 29.1995C31.1787 28.8397 31.0917 28.3931 31.0917 27.8564C31.0917 27.2778 31.2117 26.7802 31.4549 26.3605C31.6951 25.9437 32.0133 25.596 32.4065 25.3232C32.7998 25.0504 33.2441 24.8465 33.7424 24.7116C34.2408 24.5767 34.7481 24.5107 35.2645 24.5107C35.8439 24.5107 36.4323 24.6127 37.0266 24.8165C37.6241 25.0204 38.1404 25.3262 38.5817 25.7339L37.2548 27.1819Z" fill="black"/>
<path d="M40.6836 24.8018H44.4031C45.0575 24.8018 45.6489 24.8617 46.1743 24.9786C46.6996 25.0956 47.1499 25.2904 47.5282 25.5572C47.9064 25.8241 48.1946 26.1688 48.3988 26.5855C48.6029 27.0022 48.705 27.5089 48.705 28.0965C48.705 28.729 48.5879 29.2597 48.3507 29.6884C48.1136 30.1171 47.7954 30.4618 47.3931 30.7257C46.9908 30.9895 46.5195 31.1784 45.9851 31.2953C45.4478 31.4122 44.8804 31.4721 44.277 31.4721H42.716V36.1849H40.6866V24.8018H40.6836ZM44.1299 29.7723C44.4631 29.7723 44.7783 29.7483 45.0815 29.7004C45.3817 29.6524 45.6519 29.5655 45.8861 29.4426C46.1232 29.3196 46.3094 29.1518 46.4505 28.9359C46.5885 28.723 46.6606 28.4442 46.6606 28.0995C46.6606 27.7667 46.5916 27.4969 46.4505 27.287C46.3094 27.0772 46.1262 26.9153 45.8951 26.7954C45.6639 26.6785 45.3998 26.6005 45.1056 26.5615C44.8114 26.5256 44.5082 26.5046 44.1959 26.5046H42.713V29.7693H44.1299V29.7723Z" fill="black"/>
<path d="M53.1175 24.8018H54.8737L59.785 36.1879H57.4644L56.4017 33.5827H51.4574L50.4277 36.1879H48.1582L53.1175 24.8018ZM55.6933 31.8469L53.9371 27.2151L52.1479 31.8469H55.6933Z" fill="black"/>
<path d="M68.8541 27.4727C68.5539 27.065 68.1606 26.7682 67.6773 26.5793C67.1939 26.3934 66.7226 26.2975 66.2603 26.2975C65.6689 26.2975 65.1316 26.4054 64.6482 26.6183C64.1649 26.8311 63.7476 27.1279 63.3994 27.5027C63.0512 27.8774 62.781 28.3181 62.5949 28.8218C62.4057 29.3254 62.3127 29.874 62.3127 30.4616C62.3127 31.0822 62.4027 31.6518 62.5859 32.1674C62.769 32.6831 63.0302 33.1238 63.3664 33.4955C63.7056 33.8643 64.1109 34.1521 64.5822 34.3559C65.0535 34.5598 65.5849 34.6617 66.1763 34.6617C66.7887 34.6617 67.329 34.5418 67.8034 34.299C68.2747 34.0591 68.6559 33.7384 68.9471 33.3426L70.5742 34.4848C70.0699 35.1174 69.4515 35.6091 68.722 35.9568C67.9925 36.3046 67.1369 36.4785 66.1613 36.4785C65.2697 36.4785 64.4501 36.3316 63.7056 36.0378C62.9581 35.744 62.3187 35.3303 61.7813 34.7996C61.244 34.269 60.8267 33.6364 60.5265 32.9019C60.2263 32.1674 60.0762 31.355 60.0762 30.4646C60.0762 29.5533 60.2353 28.7288 60.5505 27.9943C60.8657 27.2598 61.301 26.6363 61.8564 26.1206C62.4087 25.605 63.0602 25.2093 63.8137 24.9305C64.5642 24.6516 65.3807 24.5107 66.2603 24.5107C66.6266 24.5107 67.0078 24.5467 67.4041 24.6157C67.8004 24.6846 68.1816 24.7925 68.5479 24.9364C68.9141 25.0803 69.2563 25.2602 69.5775 25.4761C69.8988 25.6919 70.1749 25.9467 70.4001 26.2495L68.8541 27.4727Z" fill="black"/>
<path d="M71.832 24.8018H79.3851V26.5705H73.8614V29.4665H79.0969V31.1724H73.8614V34.3891H79.6763V36.1909H71.832V24.8018Z" fill="black"/>
<path d="M88 0H39.9658V2.99591H88V0Z" fill="#ADC7DE"/>
<path d="M85 -0.000135422L85 13.8916L88 13.8916L88 -0.000131297L85 -0.000135422Z" fill="#ADC7DE"/>
</svg>
