<svg width="30" height="24" viewBox="0 0 30 24" fill="none" xmlns="http://www.w3.org/2000/svg">
<mask id="path-1-outside-1_146_771" maskUnits="userSpaceOnUse" x="0" y="0" width="30" height="24" fill="black">
<rect fill="white" width="30" height="24"/>
<path fill-rule="evenodd" clip-rule="evenodd" d="M22.8636 10.4972C22.8636 5.26186 17.9616 1 11.9318 1C5.90206 1 1 5.26186 1 10.4972C1.00802 12.448 1.67082 14.3357 2.87567 15.8393L1.57536 20.4276C1.54509 20.5399 1.54749 20.6588 1.58228 20.7696C1.61706 20.8805 1.68269 20.9783 1.77098 21.0509C1.87833 21.1399 2.01307 21.1862 2.15072 21.1815C2.24956 21.1812 2.34665 21.1546 2.43264 21.1043L6.54071 18.73C8.22403 19.5605 10.0659 19.9924 11.9318 19.9943C17.9616 19.9943 22.8636 15.7325 22.8636 10.4972ZM11.9318 18.8072C10.1456 18.8135 8.38314 18.3843 6.78811 17.5548C6.70487 17.509 6.612 17.4851 6.51769 17.4851C6.42338 17.4851 6.33052 17.509 6.24727 17.5548L3.0828 19.4008L4.06666 15.8393C4.09342 15.7447 4.09692 15.6447 4.07683 15.5483C4.05674 15.4519 4.0137 15.3622 3.95159 15.2873C2.80765 13.969 2.16757 12.2665 2.15072 10.4972C2.15072 5.91479 6.54071 2.18715 11.9318 2.18715C17.3229 2.18715 21.7129 5.91479 21.7129 10.4972C21.7129 15.0796 17.3229 18.8072 11.9318 18.8072ZM6.88632 11.0909C7.35074 11.0909 7.72723 10.7144 7.72723 10.25C7.72723 9.78557 7.35074 9.40908 6.88632 9.40908C6.4219 9.40908 6.04541 9.78557 6.04541 10.25C6.04541 10.7144 6.4219 11.0909 6.88632 11.0909ZM11.9319 11.0909C12.3963 11.0909 12.7728 10.7144 12.7728 10.25C12.7728 9.78557 12.3963 9.40908 11.9319 9.40908C11.4674 9.40908 11.0909 9.78557 11.0909 10.25C11.0909 10.7144 11.4674 11.0909 11.9319 11.0909ZM17.8182 10.25C17.8182 10.7144 17.4417 11.0909 16.9773 11.0909C16.5128 11.0909 16.1364 10.7144 16.1364 10.25C16.1364 9.78557 16.5128 9.40908 16.9773 9.40908C17.4417 9.40908 17.8182 9.78557 17.8182 10.25ZM29.2188 12.3923C29.8176 14.3674 29.6765 16.5151 28.8255 18.3805L29.5759 22.1003C29.6002 22.2121 29.5948 22.3289 29.5604 22.4376C29.5259 22.5462 29.4639 22.6424 29.3812 22.7151C29.2789 22.809 29.1491 22.8613 29.0146 22.8627C28.9477 22.8615 28.8817 22.8469 28.8198 22.8197L26.0988 21.6515C24.8932 22.459 23.4975 22.8795 22.0764 22.8631C20.6554 22.8468 19.2683 22.3943 18.0791 21.5592C18.0157 21.5151 17.961 21.4578 17.9183 21.3909C17.8756 21.3239 17.8456 21.2485 17.8302 21.1691C17.8147 21.0896 17.8141 21.0077 17.8283 20.928C17.8425 20.8482 17.8713 20.7723 17.913 20.7046C17.997 20.5698 18.1272 20.4761 18.2752 20.4439C18.4233 20.4116 18.5772 20.4435 18.7035 20.5325C19.7256 21.2489 20.9197 21.6313 22.1405 21.633C23.4074 21.6398 24.6462 21.2323 25.6921 20.4648C25.7702 20.4077 25.8602 20.3722 25.9541 20.3615C26.0481 20.3508 26.1431 20.3651 26.2306 20.4033L28.2412 21.2518L27.6684 18.4236C27.6405 18.284 27.6587 18.1384 27.7199 18.0116C28.4952 16.4254 28.6525 14.574 28.1575 12.8634C27.6624 11.1529 26.5553 9.72296 25.0792 8.88745C25.0126 8.8495 24.9536 8.79785 24.9057 8.73544C24.8577 8.67304 24.8216 8.6011 24.7995 8.52374C24.7775 8.44638 24.7698 8.36511 24.777 8.28457C24.7842 8.20403 24.8061 8.1258 24.8414 8.05434C24.8768 7.98289 24.9249 7.9196 24.9831 7.86811C25.0412 7.81661 25.1082 7.77792 25.1803 7.75422C25.2524 7.73053 25.3281 7.7223 25.4031 7.73002C25.4782 7.73773 25.5511 7.76124 25.6176 7.79918C27.3285 8.76987 28.62 10.4172 29.2188 12.3923Z"/>
</mask>
<path fill-rule="evenodd" clip-rule="evenodd" d="M22.8636 10.4972C22.8636 5.26186 17.9616 1 11.9318 1C5.90206 1 1 5.26186 1 10.4972C1.00802 12.448 1.67082 14.3357 2.87567 15.8393L1.57536 20.4276C1.54509 20.5399 1.54749 20.6588 1.58228 20.7696C1.61706 20.8805 1.68269 20.9783 1.77098 21.0509C1.87833 21.1399 2.01307 21.1862 2.15072 21.1815C2.24956 21.1812 2.34665 21.1546 2.43264 21.1043L6.54071 18.73C8.22403 19.5605 10.0659 19.9924 11.9318 19.9943C17.9616 19.9943 22.8636 15.7325 22.8636 10.4972ZM11.9318 18.8072C10.1456 18.8135 8.38314 18.3843 6.78811 17.5548C6.70487 17.509 6.612 17.4851 6.51769 17.4851C6.42338 17.4851 6.33052 17.509 6.24727 17.5548L3.0828 19.4008L4.06666 15.8393C4.09342 15.7447 4.09692 15.6447 4.07683 15.5483C4.05674 15.4519 4.0137 15.3622 3.95159 15.2873C2.80765 13.969 2.16757 12.2665 2.15072 10.4972C2.15072 5.91479 6.54071 2.18715 11.9318 2.18715C17.3229 2.18715 21.7129 5.91479 21.7129 10.4972C21.7129 15.0796 17.3229 18.8072 11.9318 18.8072ZM6.88632 11.0909C7.35074 11.0909 7.72723 10.7144 7.72723 10.25C7.72723 9.78557 7.35074 9.40908 6.88632 9.40908C6.4219 9.40908 6.04541 9.78557 6.04541 10.25C6.04541 10.7144 6.4219 11.0909 6.88632 11.0909ZM11.9319 11.0909C12.3963 11.0909 12.7728 10.7144 12.7728 10.25C12.7728 9.78557 12.3963 9.40908 11.9319 9.40908C11.4674 9.40908 11.0909 9.78557 11.0909 10.25C11.0909 10.7144 11.4674 11.0909 11.9319 11.0909ZM17.8182 10.25C17.8182 10.7144 17.4417 11.0909 16.9773 11.0909C16.5128 11.0909 16.1364 10.7144 16.1364 10.25C16.1364 9.78557 16.5128 9.40908 16.9773 9.40908C17.4417 9.40908 17.8182 9.78557 17.8182 10.25ZM29.2188 12.3923C29.8176 14.3674 29.6765 16.5151 28.8255 18.3805L29.5759 22.1003C29.6002 22.2121 29.5948 22.3289 29.5604 22.4376C29.5259 22.5462 29.4639 22.6424 29.3812 22.7151C29.2789 22.809 29.1491 22.8613 29.0146 22.8627C28.9477 22.8615 28.8817 22.8469 28.8198 22.8197L26.0988 21.6515C24.8932 22.459 23.4975 22.8795 22.0764 22.8631C20.6554 22.8468 19.2683 22.3943 18.0791 21.5592C18.0157 21.5151 17.961 21.4578 17.9183 21.3909C17.8756 21.3239 17.8456 21.2485 17.8302 21.1691C17.8147 21.0896 17.8141 21.0077 17.8283 20.928C17.8425 20.8482 17.8713 20.7723 17.913 20.7046C17.997 20.5698 18.1272 20.4761 18.2752 20.4439C18.4233 20.4116 18.5772 20.4435 18.7035 20.5325C19.7256 21.2489 20.9197 21.6313 22.1405 21.633C23.4074 21.6398 24.6462 21.2323 25.6921 20.4648C25.7702 20.4077 25.8602 20.3722 25.9541 20.3615C26.0481 20.3508 26.1431 20.3651 26.2306 20.4033L28.2412 21.2518L27.6684 18.4236C27.6405 18.284 27.6587 18.1384 27.7199 18.0116C28.4952 16.4254 28.6525 14.574 28.1575 12.8634C27.6624 11.1529 26.5553 9.72296 25.0792 8.88745C25.0126 8.8495 24.9536 8.79785 24.9057 8.73544C24.8577 8.67304 24.8216 8.6011 24.7995 8.52374C24.7775 8.44638 24.7698 8.36511 24.777 8.28457C24.7842 8.20403 24.8061 8.1258 24.8414 8.05434C24.8768 7.98289 24.9249 7.9196 24.9831 7.86811C25.0412 7.81661 25.1082 7.77792 25.1803 7.75422C25.2524 7.73053 25.3281 7.7223 25.4031 7.73002C25.4782 7.73773 25.5511 7.76124 25.6176 7.79918C27.3285 8.76987 28.62 10.4172 29.2188 12.3923Z" fill="black"/>
<path d="M1 10.4972H0.599997L0.600003 10.4988L1 10.4972ZM2.87567 15.8393L3.26051 15.9484L3.31672 15.7501L3.18782 15.5892L2.87567 15.8393ZM1.57536 20.4276L1.19048 20.3186L1.18916 20.3235L1.57536 20.4276ZM1.77098 21.0509L2.02631 20.743L2.02507 20.742L1.77098 21.0509ZM2.15072 21.1815L2.14946 20.7813L2.13688 20.7817L2.15072 21.1815ZM2.43264 21.1043L2.23248 20.758L2.23075 20.759L2.43264 21.1043ZM6.54071 18.73L6.71767 18.3713L6.52579 18.2766L6.34055 18.3837L6.54071 18.73ZM11.9318 19.9943L11.9314 20.3943H11.9318V19.9943ZM6.78811 17.5548L6.59547 17.9054L6.60354 17.9096L6.78811 17.5548ZM11.9318 18.8072V18.4072L11.9304 18.4072L11.9318 18.8072ZM6.24727 17.5548L6.05462 17.2041L6.04572 17.2092L6.24727 17.5548ZM3.0828 19.4008L2.69724 19.2943L2.43559 20.2414L3.28435 19.7463L3.0828 19.4008ZM4.06666 15.8393L3.68175 15.7305L3.6811 15.7328L4.06666 15.8393ZM4.07683 15.5483L4.46841 15.4667L4.46841 15.4667L4.07683 15.5483ZM3.95159 15.2873L4.25962 15.032L4.25371 15.0251L3.95159 15.2873ZM2.15072 10.4972H1.7507L1.75074 10.501L2.15072 10.4972ZM28.8255 18.3805L28.4616 18.2145L28.4078 18.3325L28.4334 18.4596L28.8255 18.3805ZM29.2188 12.3923L29.6016 12.2763L29.2188 12.3923ZM29.5759 22.1003L29.1838 22.1794L29.185 22.185L29.5759 22.1003ZM29.3812 22.7151L29.1169 22.4148L29.1107 22.4205L29.3812 22.7151ZM29.0146 22.8627L29.0071 23.2628L29.0188 23.2627L29.0146 22.8627ZM28.8198 22.8197L28.9808 22.4535L28.9776 22.4521L28.8198 22.8197ZM26.0988 21.6515L26.2566 21.2839L26.0568 21.1981L25.8762 21.3191L26.0988 21.6515ZM22.0764 22.8631L22.081 22.4631H22.081L22.0764 22.8631ZM18.0791 21.5592L18.309 21.2319L18.3077 21.231L18.0791 21.5592ZM17.9183 21.3909L17.5811 21.606L17.5811 21.606L17.9183 21.3909ZM17.8302 21.1691L18.2228 21.0928L18.2228 21.0927L17.8302 21.1691ZM17.913 20.7046L17.5735 20.4931L17.5723 20.495L17.913 20.7046ZM18.7035 20.5325L18.4731 20.8594L18.4739 20.86L18.7035 20.5325ZM22.1405 21.633L22.1426 21.233L22.1411 21.233L22.1405 21.633ZM25.6921 20.4648L25.4559 20.142L25.4555 20.1423L25.6921 20.4648ZM25.9541 20.3615L25.9995 20.7589H25.9995L25.9541 20.3615ZM26.2306 20.4033L26.0705 20.77L26.0751 20.7719L26.2306 20.4033ZM28.2412 21.2518L28.0857 21.6204L28.7836 21.9149L28.6333 21.1724L28.2412 21.2518ZM27.6684 18.4236L27.2761 18.502L27.2764 18.503L27.6684 18.4236ZM27.7199 18.0116L27.3606 17.836L27.3598 17.8376L27.7199 18.0116ZM28.1575 12.8634L27.7732 12.9746L27.7732 12.9746L28.1575 12.8634ZM25.0792 8.88745L24.8811 9.23496L24.8821 9.23555L25.0792 8.88745ZM24.9057 8.73544L25.2228 8.49165L25.2228 8.49164L24.9057 8.73544ZM24.7995 8.52374L24.4149 8.63349L24.4149 8.6335L24.7995 8.52374ZM24.777 8.28457L25.1754 8.32013V8.32012L24.777 8.28457ZM24.8414 8.05434L24.4829 7.87695L24.4829 7.87695L24.8414 8.05434ZM24.9831 7.86811L25.2483 8.16755L25.2483 8.16755L24.9831 7.86811ZM25.1803 7.75422L25.3052 8.13422L25.3052 8.13422L25.1803 7.75422ZM25.4031 7.73002L25.3622 8.12792L25.3622 8.12792L25.4031 7.73002ZM25.6176 7.79918L25.4195 8.14669L25.4202 8.14709L25.6176 7.79918ZM11.9318 1.4C17.7953 1.4 22.4636 5.53368 22.4636 10.4972H23.2636C23.2636 4.99004 18.1279 0.6 11.9318 0.6V1.4ZM1.4 10.4972C1.4 5.53368 6.06837 1.4 11.9318 1.4V0.6C5.73574 0.6 0.6 4.99004 0.6 10.4972H1.4ZM3.18782 15.5892C2.04024 14.1571 1.40765 12.3572 1.4 10.4955L0.600003 10.4988C0.608393 12.5388 1.3014 14.5144 2.56352 16.0895L3.18782 15.5892ZM1.9602 20.5367L3.26051 15.9484L2.49083 15.7303L1.19051 20.3186L1.9602 20.5367ZM1.96392 20.6498C1.95197 20.6118 1.95111 20.5705 1.96156 20.5318L1.18916 20.3235C1.13906 20.5092 1.14302 20.7058 1.20064 20.8894L1.96392 20.6498ZM2.02507 20.742C1.99777 20.7195 1.97585 20.6878 1.96392 20.6498L1.20064 20.8894C1.25828 21.0731 1.36761 21.237 1.51689 21.3598L2.02507 20.742ZM2.13688 20.7817C2.09852 20.7831 2.05926 20.7703 2.02631 20.743L1.51566 21.3588C1.6974 21.5095 1.92762 21.5894 2.16455 21.5812L2.13688 20.7817ZM2.23075 20.759C2.20514 20.774 2.17719 20.7814 2.14946 20.7815L2.15198 21.5815C2.32193 21.5809 2.48816 21.5352 2.63454 21.4496L2.23075 20.759ZM6.34055 18.3837L2.23249 20.758L2.6328 21.4506L6.74086 19.0763L6.34055 18.3837ZM11.9322 19.5943C10.128 19.5925 8.34642 19.1748 6.71767 18.3713L6.36374 19.0888C8.10164 19.9461 10.0039 20.3924 11.9314 20.3943L11.9322 19.5943ZM22.4636 10.4972C22.4636 15.4607 17.7953 19.5943 11.9318 19.5943V20.3943C18.1279 20.3943 23.2636 16.0043 23.2636 10.4972H22.4636ZM6.60354 17.9096C8.25561 18.7689 10.0818 19.2137 11.9332 19.2072L11.9304 18.4072C10.2093 18.4132 8.51067 17.9998 6.97268 17.1999L6.60354 17.9096ZM6.51769 17.8851C6.54418 17.8851 6.57086 17.8918 6.59552 17.9053L6.9807 17.2042C6.83888 17.1263 6.67983 17.0851 6.51769 17.0851V17.8851ZM6.43986 17.9053C6.46453 17.8918 6.49121 17.8851 6.51769 17.8851V17.0851C6.35555 17.0851 6.19651 17.1263 6.05469 17.2042L6.43986 17.9053ZM3.28435 19.7463L6.44883 17.9003L6.04572 17.2092L2.88124 19.0553L3.28435 19.7463ZM3.6811 15.7328L2.69724 19.2943L3.46836 19.5073L4.45222 15.9458L3.6811 15.7328ZM3.68524 15.6299C3.69219 15.6633 3.69096 15.6979 3.68176 15.7305L4.45157 15.9482C4.49589 15.7914 4.50164 15.6261 4.46841 15.4667L3.68524 15.6299ZM3.64364 15.5426C3.66363 15.5667 3.6783 15.5966 3.68524 15.6299L4.46841 15.4667C4.43517 15.3072 4.36377 15.1578 4.25954 15.032L3.64364 15.5426ZM1.75074 10.501C1.76848 12.3638 2.44234 14.1583 3.64948 15.5495L4.25371 15.0251C3.17297 13.7797 2.56666 12.1691 2.5507 10.4934L1.75074 10.501ZM11.9318 1.78715C6.38347 1.78715 1.75072 5.63516 1.75072 10.4972H2.55072C2.55072 6.19441 6.69794 2.58715 11.9318 2.58715V1.78715ZM22.1129 10.4972C22.1129 5.63516 17.4802 1.78715 11.9318 1.78715V2.58715C17.1657 2.58715 21.3129 6.19441 21.3129 10.4972H22.1129ZM11.9318 19.2072C17.4802 19.2072 22.1129 15.3592 22.1129 10.4972H21.3129C21.3129 14.7999 17.1657 18.4072 11.9318 18.4072V19.2072ZM7.32723 10.25C7.32723 10.4935 7.12983 10.6909 6.88632 10.6909V11.4909C7.57165 11.4909 8.12723 10.9353 8.12723 10.25H7.32723ZM6.88632 9.80908C7.12983 9.80908 7.32723 10.0065 7.32723 10.25H8.12723C8.12723 9.56465 7.57165 9.00908 6.88632 9.00908V9.80908ZM6.44541 10.25C6.44541 10.0065 6.64281 9.80908 6.88632 9.80908V9.00908C6.20098 9.00908 5.64541 9.56465 5.64541 10.25H6.44541ZM6.88632 10.6909C6.64281 10.6909 6.44541 10.4935 6.44541 10.25H5.64541C5.64541 10.9353 6.20098 11.4909 6.88632 11.4909V10.6909ZM12.3728 10.25C12.3728 10.4935 12.1754 10.6909 11.9319 10.6909V11.4909C12.6172 11.4909 13.1728 10.9353 13.1728 10.25H12.3728ZM11.9319 9.80908C12.1754 9.80908 12.3728 10.0065 12.3728 10.25H13.1728C13.1728 9.56465 12.6172 9.00908 11.9319 9.00908V9.80908ZM11.4909 10.25C11.4909 10.0065 11.6883 9.80908 11.9319 9.80908V9.00908C11.2465 9.00908 10.6909 9.56465 10.6909 10.25H11.4909ZM11.9319 10.6909C11.6883 10.6909 11.4909 10.4935 11.4909 10.25H10.6909C10.6909 10.9353 11.2465 11.4909 11.9319 11.4909V10.6909ZM16.9773 11.4909C17.6626 11.4909 18.2182 10.9353 18.2182 10.25H17.4182C17.4182 10.4935 17.2208 10.6909 16.9773 10.6909V11.4909ZM15.7364 10.25C15.7364 10.9353 16.2919 11.4909 16.9773 11.4909V10.6909C16.7338 10.6909 16.5364 10.4935 16.5364 10.25H15.7364ZM16.9773 9.00908C16.2919 9.00908 15.7364 9.56465 15.7364 10.25H16.5364C16.5364 10.0065 16.7338 9.80908 16.9773 9.80908V9.00908ZM18.2182 10.25C18.2182 9.56465 17.6626 9.00908 16.9773 9.00908V9.80908C17.2208 9.80908 17.4182 10.0065 17.4182 10.25H18.2182ZM29.1894 18.5466C30.0812 16.5919 30.2284 14.3439 29.6016 12.2763L28.836 12.5084C29.4068 14.391 29.2719 16.4383 28.4616 18.2145L29.1894 18.5466ZM29.968 22.0212L29.2176 18.3014L28.4334 18.4596L29.1838 22.1794L29.968 22.0212ZM29.9417 22.5584C29.9972 22.3829 30.0058 22.1953 29.9669 22.0155L29.185 22.185C29.1945 22.2289 29.1923 22.2749 29.179 22.3168L29.9417 22.5584ZM29.6454 23.0154C29.7847 22.8929 29.8861 22.7339 29.9417 22.5584L29.179 22.3168C29.1658 22.3586 29.143 22.3919 29.1169 22.4148L29.6454 23.0154ZM29.0188 23.2627C29.2555 23.2601 29.4792 23.1681 29.6517 23.0098L29.1107 22.4205C29.0786 22.4499 29.0428 22.4624 29.0103 22.4627L29.0188 23.2627ZM28.6588 23.1858C28.7686 23.2341 28.8868 23.2604 29.0071 23.2626L29.022 22.4628C29.0086 22.4625 28.9947 22.4596 28.9808 22.4535L28.6588 23.1858ZM25.941 22.019L28.662 23.1872L28.9776 22.4521L26.2566 21.2839L25.941 22.019ZM22.0718 23.2631C23.5755 23.2804 25.0502 22.8353 26.3214 21.9838L25.8762 21.3191C24.7362 22.0827 23.4194 22.4785 22.081 22.4631L22.0718 23.2631ZM17.8492 21.8866C19.1029 22.767 20.5681 23.2458 22.0718 23.2631L22.081 22.4631C20.7426 22.4478 19.4337 22.0217 18.309 21.2319L17.8492 21.8866ZM17.5811 21.606C17.6514 21.7162 17.7425 21.8123 17.8505 21.8875L18.3077 21.231C18.2888 21.2178 18.2707 21.1995 18.2555 21.1757L17.5811 21.606ZM17.4375 21.2454C17.4624 21.3732 17.5108 21.4958 17.5811 21.606L18.2555 21.1757C18.2404 21.152 18.2289 21.1238 18.2228 21.0928L17.4375 21.2454ZM17.4345 20.8578C17.4117 20.986 17.4127 21.1176 17.4375 21.2454L18.2228 21.0927C18.2168 21.0617 18.2165 21.0294 18.2221 20.9982L17.4345 20.8578ZM17.5723 20.495C17.5039 20.6062 17.4574 20.7296 17.4345 20.8578L18.2221 20.9982C18.2277 20.9669 18.2387 20.9385 18.2536 20.9143L17.5723 20.495ZM18.1901 20.053C17.931 20.1095 17.7115 20.2716 17.5735 20.4931L18.2525 20.9162C18.2824 20.8681 18.3233 20.8428 18.3603 20.8347L18.1901 20.053ZM18.9339 20.2055C18.7181 20.0534 18.45 19.9964 18.1901 20.053L18.3603 20.8347C18.3965 20.8268 18.4364 20.8336 18.4731 20.8594L18.9339 20.2055ZM22.1411 21.233C21.0042 21.2314 19.8897 20.8755 18.9331 20.2049L18.4739 20.86C19.5616 21.6224 20.8352 22.0312 22.1399 22.033L22.1411 21.233ZM25.4555 20.1423C24.477 20.8603 23.3215 21.2393 22.1426 21.233L22.1384 22.033C23.4933 22.0402 24.8154 21.6043 25.9287 20.7873L25.4555 20.1423ZM25.9088 19.9641C25.7442 19.9829 25.5887 20.0449 25.4559 20.142L25.9283 20.7877C25.9517 20.7706 25.9762 20.7616 25.9995 20.7589L25.9088 19.9641ZM26.3906 20.0368C26.2392 19.9707 26.0734 19.9453 25.9088 19.9641L25.9995 20.7589C26.0227 20.7563 26.0469 20.7596 26.0705 20.7699L26.3906 20.0368ZM28.3967 20.8833L26.3861 20.0348L26.0751 20.7719L28.0857 21.6204L28.3967 20.8833ZM27.2764 18.503L27.8492 21.3312L28.6333 21.1724L28.0604 18.3442L27.2764 18.503ZM27.3598 17.8376C27.2602 18.0437 27.2314 18.278 27.2761 18.502L28.0606 18.3452C28.0496 18.2899 28.0572 18.233 28.0801 18.1856L27.3598 17.8376ZM27.7732 12.9746C28.241 14.5907 28.0918 16.3399 27.3606 17.836L28.0793 18.1873C28.8986 16.511 29.0641 14.5572 28.5417 12.7522L27.7732 12.9746ZM24.8821 9.23555C26.2624 10.0168 27.3056 11.3589 27.7732 12.9746L28.5417 12.7522C28.0192 10.9468 26.8482 9.42911 25.2762 8.53934L24.8821 9.23555ZM24.5885 8.97924C24.668 9.08261 24.7671 9.16997 24.8811 9.23496L25.2773 8.53994C25.2581 8.52903 25.2393 8.51309 25.2228 8.49165L24.5885 8.97924ZM24.4149 8.6335C24.4505 8.75831 24.5091 8.87593 24.5885 8.97924L25.2228 8.49164C25.2062 8.47014 25.1927 8.44389 25.1842 8.41398L24.4149 8.6335ZM24.3786 8.24901C24.3671 8.37817 24.3793 8.50871 24.4149 8.63349L25.1842 8.41398C25.1757 8.38405 25.1726 8.35204 25.1754 8.32013L24.3786 8.24901ZM24.4829 7.87695C24.4253 7.99344 24.3901 8.11985 24.3786 8.24902L25.1754 8.32012C25.1783 8.28821 25.1869 8.25815 25.2 8.23173L24.4829 7.87695ZM24.7179 7.56867C24.62 7.65535 24.5406 7.76042 24.4829 7.87695L25.2 8.23174C25.213 8.20535 25.2299 8.18386 25.2483 8.16755L24.7179 7.56867ZM25.0554 7.37423C24.9303 7.41534 24.8158 7.48193 24.7179 7.56867L25.2483 8.16755C25.2666 8.1513 25.2861 8.14049 25.3052 8.13422L25.0554 7.37423ZM25.444 7.33212C25.3128 7.31862 25.1805 7.33308 25.0554 7.37423L25.3052 8.13422C25.3242 8.12797 25.3434 8.12599 25.3622 8.12792L25.444 7.33212ZM25.8157 7.45168C25.7016 7.38664 25.5753 7.34561 25.444 7.33212L25.3622 8.12792C25.381 8.12986 25.4005 8.13584 25.4195 8.14669L25.8157 7.45168ZM29.6016 12.2763C28.9747 10.2083 27.6198 8.47529 25.815 7.45128L25.4202 8.14709C27.0371 9.06444 28.2654 10.6261 28.836 12.5084L29.6016 12.2763Z" fill="black" mask="url(#path-1-outside-1_146_771)"/>
</svg>
