<svg width="28" height="28" viewBox="0 0 28 28" fill="none" xmlns="http://www.w3.org/2000/svg">
<path d="M19.6015 7.71855L6.72521 12.7678C6.72521 12.7678 6.11575 12.9747 6.16377 13.3625C6.21179 13.7467 6.71044 13.924 6.71044 13.924L9.34035 14.8105C9.29603 14.9434 9.28864 15.0912 9.32927 15.2315C9.36621 15.3608 10.2416 18.4377 10.4337 19.0508C10.526 19.3426 10.7698 20.1146 11.4014 20.1737C11.4236 20.1737 11.4458 20.1774 11.4679 20.1774C11.6489 20.1774 11.8114 20.1109 11.9407 20.0001V20.0038C12.3618 19.664 14.0646 18.2936 14.4894 17.9538L17.1673 20.0075C18.0501 20.3916 18.3714 19.5901 18.3714 19.5901L20.6652 8.02882C20.6615 7.25314 19.6015 7.71855 19.6015 7.71855ZM17.9984 10.3485C17.7583 10.5738 12.07 15.9924 12.07 15.9924L12.0552 16.0848L11.4679 19.4571C11.4679 19.4571 11.3128 19.4424 11.1207 18.8329C10.936 18.2493 10.0976 15.3017 10.0274 15.0542C10.0237 15.0432 10.0237 15.0358 10.0237 15.0358L17.7287 10.0788C17.7287 10.0788 17.9282 9.95693 18.0575 9.95693C18.1203 9.95693 18.1683 9.98648 18.1646 10.0788C18.1609 10.0751 18.2385 10.1231 17.9984 10.3485Z" fill="white"/>
<path d="M14.3971 26.2058C21.3575 26.2058 27 20.5633 27 13.6029C27 6.64251 21.3575 1 14.3971 1C7.4367 1 1.79419 6.64251 1.79419 13.6029C1.79419 20.5633 7.4367 26.2058 14.3971 26.2058Z" stroke="white" stroke-width="1.63942" stroke-miterlimit="10"/>
</svg>
