<svg width="26" height="27" viewBox="0 0 26 27" fill="none" xmlns="http://www.w3.org/2000/svg">
<path d="M17.53 14.0927C17.4078 13.8413 17.2296 13.604 17.0025 13.3774C16.772 13.1507 16.4576 12.9736 16.0768 12.8391L16.0733 12.7541C16.3598 12.623 16.5938 12.4495 16.7859 12.2583C16.9711 12.0635 17.1248 11.8581 17.2296 11.642C17.3414 11.4295 17.4252 11.2135 17.4671 10.9904C17.5126 10.7744 17.53 10.576 17.53 10.3954C17.53 9.47818 17.2401 8.73447 16.6602 8.16075C16.0768 7.58703 15.1965 7.30725 14.0122 7.30371H9.16699V18.856L14.2323 18.8525C14.7598 18.8525 15.2489 18.7746 15.689 18.6258C16.1327 18.4629 16.51 18.2398 16.8279 17.9423C17.1423 17.6413 17.3903 17.2872 17.5684 16.8764C17.7431 16.462 17.8304 16.0016 17.8304 15.4952C17.8304 15.3146 17.8095 15.1021 17.7711 14.8471C17.7291 14.5992 17.6558 14.3442 17.53 14.0927ZM11.6123 9.078H13.3171C13.9249 9.078 14.3651 9.21257 14.6271 9.49235C14.8995 9.76859 15.0288 10.1475 15.0288 10.6115C15.0288 11.0789 14.8821 11.4331 14.5956 11.681C14.3127 11.9254 13.8865 12.0493 13.3206 12.0493H11.6123V9.078ZM14.9275 16.6037C14.655 16.9295 14.1904 17.0924 13.5546 17.0924H11.6123L11.6088 13.7315H13.5546C14.1624 13.7315 14.6131 13.8909 14.903 14.2167C15.1965 14.539 15.3467 14.9285 15.3467 15.3889C15.3467 15.8635 15.2035 16.2743 14.9275 16.6037Z" fill="black"/>
<path d="M12.9192 25.1671C19.502 25.1671 24.8384 19.7571 24.8384 13.0836C24.8384 6.40999 19.502 1 12.9192 1C6.3364 1 1 6.40999 1 13.0836C1 19.7571 6.3364 25.1671 12.9192 25.1671Z" stroke="black" stroke-width="2" stroke-miterlimit="10"/>
</svg>
