<svg width="28" height="28" viewBox="0 0 28 28" fill="none" xmlns="http://www.w3.org/2000/svg">
<path d="M20.6503 9.33635C20.0593 8.73428 19.3981 8.73058 19.0915 8.69734C16.9159 8.5459 13.6544 8.5459 13.6544 8.5459H13.647C13.647 8.5459 10.3855 8.5459 8.20987 8.69734C7.90699 8.73428 7.24212 8.73428 6.65113 9.33635C6.18573 9.79437 6.03428 10.836 6.03428 10.836C6.03428 10.836 5.87915 12.0586 5.87915 13.2849V14.43C5.87915 15.6526 6.03428 16.8752 6.03428 16.8752C6.03428 16.8752 6.18573 17.9168 6.65113 18.3748C7.24212 18.9769 8.0178 18.9584 8.365 19.0212C9.60978 19.1357 13.6507 19.1727 13.6507 19.1727C13.6507 19.1727 16.9159 19.169 19.0915 19.0138C19.3944 18.9769 20.0593 18.9769 20.6503 18.3748C21.1157 17.9168 21.2671 16.8752 21.2671 16.8752C21.2671 16.8752 21.4222 15.6526 21.4222 14.43V13.2849C21.4222 12.0623 21.2671 10.836 21.2671 10.836C21.2671 10.836 21.1157 9.79437 20.6503 9.33635ZM12.0476 15.8225V11.5747L16.2474 13.706L12.0476 15.8225Z" fill="white"/>
<path d="M13.6985 26.2058C20.6589 26.2058 26.3015 20.5633 26.3015 13.6029C26.3015 6.64251 20.6589 1 13.6985 1C6.73815 1 1.09564 6.64251 1.09564 13.6029C1.09564 20.5633 6.73815 26.2058 13.6985 26.2058Z" stroke="white" stroke-width="1.63942" stroke-miterlimit="10"/>
</svg>
